<?xml version="1.0" encoding="utf-8"?>
<!-- Generator: Adobe Illustrator 26.0.3, SVG Export Plug-In . SVG Version: 6.00 Build 0)  -->
<svg version="1.1" id="Layer_1" xmlns="http://www.w3.org/2000/svg" xmlns:xlink="http://www.w3.org/1999/xlink" x="0px" y="0px"
	 viewBox="0 0 70 99" style="enable-background:new 0 0 70 99;" xml:space="preserve">
<style type="text/css">
	.st0{fill:#ED1C24;}
</style>
<path class="st0" d="M56.4,15.6C50.9,10.1,43.5,7,35.7,7c-7.8,0-15.2,3.1-20.7,8.6c-5.5,5.5-8.6,12.9-8.6,20.7
	C6.3,55.9,35.7,94,35.7,94S65,55.9,65,36.3C65,28.5,62,21.1,56.4,15.6z M47.3,48c-3.1,3.1-7.2,4.8-11.6,4.8c-4.4,0-8.5-1.7-11.6-4.8
	c-3.1-3.1-4.8-7.2-4.8-11.6s1.7-8.5,4.8-11.6c3.1-3.1,7.2-4.8,11.6-4.8c4.4,0,8.5,1.7,11.6,4.8c3.1,3.1,4.8,7.2,4.8,11.6
	S50.4,44.8,47.3,48z"/>
</svg>
